<svg xmlns="http://www.w3.org/2000/svg" id="Camada_2" viewBox="0 0 290.56 109.81"><g id="Camada_1-2"><path d="m102.09,54.9c0,26.06-21.13,47.18-47.18,47.18S7.72,80.96,7.72,54.9,28.84,7.72,54.9,7.72s47.18,21.13,47.18,47.18" style="fill:#2f5aa1; stroke-width:0px;"></path><polygon points="142.36 82.8 142.42 85.45 141.04 85.45 141.14 82.92 141.04 77.02 142.44 77.02 142.36 82.8" style="fill:#2f5aa1; stroke-width:0px;"></polygon><polygon points="151.41 82.93 151.45 85.45 149.99 85.45 146.02 79.14 145.93 79.14 145.92 82.63 145.96 85.45 144.72 85.45 144.79 82.96 144.73 77.02 146.17 77.02 150.15 83.34 150.25 83.34 150.22 77.09 151.49 77 151.41 82.93" style="fill:#2f5aa1; stroke-width:0px;"></polygon><path d="m158.21,77.35l-.22,1.23-.21.08c-.28-.2-.57-.36-.87-.47-.3-.11-.58-.17-.86-.17-.43,0-.77.12-1.02.35-.25.24-.38.51-.38.83s.13.56.38.76c.25.2.65.42,1.19.68.47.23.86.43,1.15.62s.55.43.76.73c.21.3.31.66.31,1.08,0,.46-.12.87-.37,1.25-.25.38-.6.68-1.05.91-.45.22-.97.33-1.54.33-.39,0-.78-.05-1.19-.14-.41-.1-.8-.24-1.17-.42l.17-1.34.17-.08c.32.31.68.54,1.07.69.39.15.75.23,1.08.23.45,0,.82-.12,1.09-.36.27-.24.41-.53.41-.86s-.13-.6-.39-.81c-.26-.21-.67-.44-1.21-.69-.46-.22-.84-.42-1.13-.6-.29-.18-.54-.42-.74-.72-.21-.3-.31-.66-.31-1.08,0-.45.12-.87.37-1.25.25-.38.59-.67,1.03-.89.44-.21.94-.32,1.5-.32.66,0,1.33.14,2,.42" style="fill:#2f5aa1; stroke-width:0px;"></path><polygon points="165.02 77.14 164.95 78.17 163.42 78.09 162.71 78.09 162.65 82.8 162.71 85.45 161.35 85.45 161.43 82.92 161.36 78.09 160.65 78.09 159.1 78.17 159.01 78.05 159.12 77.02 164.95 77.02 165.02 77.14" style="fill:#2f5aa1; stroke-width:0px;"></polygon><polygon points="167.69 82.8 167.76 85.45 166.38 85.45 166.47 82.92 166.38 77.02 167.77 77.02 167.69 82.8" style="fill:#2f5aa1; stroke-width:0px;"></polygon><polygon points="175.03 77.14 174.95 78.17 173.43 78.09 172.72 78.09 172.66 82.8 172.72 85.45 171.36 85.45 171.43 82.92 171.37 78.09 170.66 78.09 169.11 78.17 169.02 78.05 169.12 77.02 174.95 77.02 175.03 77.14" style="fill:#2f5aa1; stroke-width:0px;"></polygon><path d="m182.62,81.3v1c0,1.03-.28,1.83-.86,2.4-.58.57-1.4.85-2.46.85s-1.81-.27-2.35-.82c-.54-.55-.81-1.32-.79-2.33l.03-1.17-.03-4.22h1.34l-.05,5.2c0,.73.15,1.28.47,1.64.32.36.81.54,1.47.54,1.31,0,1.97-.68,1.96-2.05l-.07-5.33h1.37l-.04,4.28Z" style="fill:#2f5aa1; stroke-width:0px;"></path><polygon points="189.82 77.14 189.74 78.17 188.22 78.09 187.51 78.09 187.44 82.8 187.51 85.45 186.14 85.45 186.22 82.92 186.16 78.09 185.45 78.09 183.9 78.17 183.81 78.05 183.91 77.02 189.74 77.02 189.82 77.14" style="fill:#2f5aa1; stroke-width:0px;"></polygon><path d="m192.01,78.79c-.39.51-.58,1.3-.58,2.37,0,1.16.19,2.02.57,2.55.38.54.97.81,1.77.81s1.4-.26,1.79-.77c.39-.52.58-1.32.58-2.42s-.19-1.98-.57-2.52c-.38-.53-.97-.79-1.77-.79s-1.39.26-1.78.77m4.58-.79c.63.72.95,1.74.95,3.07,0,1.44-.34,2.55-1.01,3.33-.67.78-1.63,1.18-2.88,1.18-1.15,0-2.05-.37-2.67-1.11-.63-.74-.94-1.79-.94-3.15s.34-2.5,1-3.26c.67-.76,1.62-1.14,2.86-1.14,1.16,0,2.06.36,2.69,1.08" style="fill:#2f5aa1; stroke-width:0px;"></path><polygon points="202.52 82.8 202.59 85.45 201.21 85.45 201.3 82.92 201.21 77.02 202.6 77.02 202.52 82.8" style="fill:#2f5aa1; stroke-width:0px;"></polygon><polygon points="211.57 82.93 211.61 85.45 210.15 85.45 206.18 79.14 206.09 79.14 206.08 82.63 206.12 85.45 204.88 85.45 204.95 82.96 204.9 77.02 206.33 77.02 210.31 83.34 210.41 83.34 210.39 77.09 211.65 77 211.57 82.93" style="fill:#2f5aa1; stroke-width:0px;"></polygon><polygon points="218.9 77.14 218.82 78.17 217.29 78.09 216.58 78.09 216.52 82.8 216.58 85.45 215.22 85.45 215.3 82.92 215.23 78.09 214.52 78.09 212.97 78.17 212.88 78.05 212.99 77.02 218.82 77.02 218.9 77.14" style="fill:#2f5aa1; stroke-width:0px;"></polygon><polygon points="225.24 84.3 225.32 84.42 225.23 85.45 220.25 85.45 220.34 82.92 220.25 77.02 225.25 77.02 225.33 77.14 225.23 78.18 223.23 78.13 221.63 78.14 221.59 80.59 223.11 80.62 224.5 80.58 224.6 80.69 224.49 81.72 223.01 81.68 221.58 81.71 221.56 82.8 221.6 84.35 223.2 84.36 225.24 84.3" style="fill:#2f5aa1; stroke-width:0px;"></polygon><path d="m228.06,81.34l1.44.04c.89-.27,1.33-.87,1.33-1.81,0-.49-.13-.86-.4-1.1-.27-.25-.67-.38-1.21-.39l-1.12.04-.04,3.23Zm4.64,3.8v.16c-.43.14-.87.23-1.31.28l-.16-.1c-.73-1.19-1.31-2.2-1.76-3.02h-1.43v.35l.07,2.65h-1.38l.09-2.54-.09-5.9h2.86c.85-.01,1.51.2,1.97.62.46.42.7,1.03.7,1.82,0,.56-.15,1.07-.44,1.52-.29.45-.7.82-1.23,1.1.6.95,1.3,1.97,2.11,3.06" style="fill:#2f5aa1; stroke-width:0px;"></path><polygon points="240.91 82.93 240.95 85.45 239.49 85.45 235.52 79.14 235.43 79.14 235.42 82.63 235.46 85.45 234.22 85.45 234.29 82.96 234.24 77.02 235.67 77.02 239.65 83.34 239.75 83.34 239.72 77.09 240.99 77 240.91 82.93" style="fill:#2f5aa1; stroke-width:0px;"></polygon><path d="m247.28,82.24l-1.21-3.89h-.09l-1.38,3.89,1.33.03,1.35-.03Zm2.3,3.22h-1.39l-.2-.95-.37-1.17-1.79-.04-1.61.04-.39,1.1-.21,1.01h-1.35l3.01-8.43h1.59l2.72,8.43Z" style="fill:#2f5aa1; stroke-width:0px;"></path><path d="m256.19,77.51l-.25,1.19-.13.04c-.59-.45-1.23-.68-1.94-.68-.77,0-1.36.26-1.77.78-.41.52-.61,1.3-.61,2.33s.21,1.86.62,2.42c.41.55,1,.83,1.76.83.37,0,.73-.06,1.1-.19.36-.13.7-.3,1-.53l.13.08-.11,1.23c-.75.37-1.5.55-2.23.55-1.18,0-2.09-.37-2.73-1.1-.64-.74-.96-1.78-.96-3.14s.34-2.48,1.01-3.24c.67-.76,1.62-1.14,2.84-1.14.86,0,1.61.19,2.27.58" style="fill:#2f5aa1; stroke-width:0px;"></path><polygon points="258.89 82.8 258.95 85.45 257.57 85.45 257.66 82.92 257.57 77.02 258.96 77.02 258.89 82.8" style="fill:#2f5aa1; stroke-width:0px;"></polygon><path d="m262.35,78.79c-.39.51-.58,1.3-.58,2.37,0,1.16.19,2.02.57,2.55.38.54.97.81,1.77.81s1.4-.26,1.79-.77c.39-.52.58-1.32.58-2.42s-.19-1.98-.57-2.52c-.38-.53-.97-.79-1.77-.79s-1.39.26-1.78.77m4.58-.79c.63.72.95,1.74.95,3.07,0,1.44-.34,2.55-1.01,3.33-.67.78-1.63,1.18-2.88,1.18-1.15,0-2.05-.37-2.67-1.11-.63-.74-.94-1.79-.94-3.15s.34-2.5,1-3.26c.67-.76,1.62-1.14,2.86-1.14,1.16,0,2.06.36,2.69,1.08" style="fill:#2f5aa1; stroke-width:0px;"></path><polygon points="276.12 82.93 276.16 85.45 274.7 85.45 270.73 79.14 270.64 79.14 270.63 82.63 270.67 85.45 269.43 85.45 269.5 82.96 269.44 77.02 270.88 77.02 274.85 83.34 274.96 83.34 274.93 77.09 276.19 77 276.12 82.93" style="fill:#2f5aa1; stroke-width:0px;"></polygon><path d="m282.49,82.24l-1.21-3.89h-.09l-1.38,3.89,1.33.03,1.35-.03Zm2.3,3.22h-1.39l-.2-.95-.37-1.17-1.79-.04-1.61.04-.39,1.1-.21,1.01h-1.35l3.01-8.43h1.59l2.72,8.43Z" style="fill:#2f5aa1; stroke-width:0px;"></path><polygon points="290.56 84.44 290.46 85.45 286.12 85.45 286.21 82.92 286.12 77.02 287.52 77.02 287.44 82.8 287.46 84.32 290.47 84.32 290.56 84.44" style="fill:#2f5aa1; stroke-width:0px;"></polygon><path d="m145.96,98.35c.42-.53.64-1.34.64-2.42s-.2-1.88-.61-2.4c-.41-.51-1.02-.77-1.85-.77-.48,0-1.05.02-1.72.05l-.07,4.68.04,1.56c.31.03.63.05.95.07.32.02.57.03.77.03.81,0,1.42-.27,1.85-.8m1.07-5.66c.65.68.97,1.66.97,2.94,0,1.48-.35,2.62-1.06,3.41-.71.79-1.73,1.19-3.06,1.19-.38,0-.83,0-1.35-.02-.52-.01-1.02-.03-1.47-.06h-.01l.09-2.54-.09-5.9h.01l3.19-.05c1.21,0,2.14.34,2.78,1.02" style="fill:#2f5aa1; stroke-width:0px;"></path><polygon points="154.55 98.99 154.62 99.11 154.53 100.15 149.56 100.15 149.65 97.62 149.56 91.72 154.56 91.72 154.64 91.84 154.53 92.88 152.54 92.82 150.93 92.84 150.9 95.29 152.42 95.32 153.81 95.28 153.9 95.38 153.8 96.42 152.31 96.38 150.88 96.41 150.87 97.5 150.91 99.05 152.51 99.06 154.55 98.99" style="fill:#2f5aa1; stroke-width:0px;"></polygon><polygon points="163.12 98.99 163.2 99.11 163.11 100.15 158.13 100.15 158.22 97.62 158.13 91.72 163.13 91.72 163.21 91.84 163.11 92.88 161.11 92.82 159.51 92.84 159.47 95.29 160.99 95.32 162.39 95.28 162.48 95.38 162.37 96.42 160.89 96.38 159.46 96.41 159.44 97.5 159.48 99.05 161.09 99.06 163.12 98.99" style="fill:#2f5aa1; stroke-width:0px;"></polygon><path d="m169.52,98.35c.42-.53.64-1.34.64-2.42s-.2-1.88-.61-2.4c-.41-.51-1.02-.77-1.85-.77-.48,0-1.05.02-1.72.05l-.07,4.68.04,1.56c.32.03.63.05.95.07.31.02.57.03.77.03.81,0,1.42-.27,1.85-.8m1.07-5.66c.65.68.97,1.66.97,2.94,0,1.48-.35,2.62-1.06,3.41-.71.79-1.73,1.19-3.06,1.19-.38,0-.83,0-1.35-.02-.52-.01-1.02-.03-1.47-.06h-.01l.09-2.54-.09-5.9h.01l3.19-.05c1.21,0,2.14.34,2.78,1.02" style="fill:#2f5aa1; stroke-width:0px;"></path><path d="m179.37,96v1c0,1.03-.28,1.83-.85,2.4-.58.57-1.4.85-2.46.85s-1.81-.27-2.35-.82c-.54-.55-.81-1.32-.79-2.33l.03-1.17-.03-4.22h1.34l-.05,5.2c0,.74.15,1.28.47,1.64.32.36.81.54,1.47.54,1.31,0,1.97-.68,1.96-2.05l-.07-5.33h1.37l-.04,4.28Z" style="fill:#2f5aa1; stroke-width:0px;"></path><path d="m186.87,92.2l-.25,1.2-.13.04c-.59-.46-1.23-.68-1.94-.68-.77,0-1.36.26-1.77.78-.41.52-.61,1.3-.61,2.33s.21,1.87.62,2.42c.41.55,1,.83,1.76.83.37,0,.73-.06,1.1-.19.36-.13.7-.3,1.01-.53l.13.08-.11,1.23c-.75.37-1.5.55-2.23.55-1.18,0-2.09-.37-2.73-1.1-.64-.74-.96-1.78-.96-3.14s.34-2.48,1.01-3.24c.67-.76,1.62-1.14,2.84-1.14.86,0,1.61.19,2.27.58" style="fill:#2f5aa1; stroke-width:0px;"></path><path d="m192.25,96.93l-1.21-3.89h-.09l-1.38,3.89,1.33.03,1.35-.03Zm2.3,3.22h-1.39l-.2-.95-.37-1.17-1.79-.04-1.61.04-.39,1.1-.21,1.01h-1.35l3.01-8.43h1.59l2.72,8.43Z" style="fill:#2f5aa1; stroke-width:0px;"></path><path d="m198.86,100.81l.45.26c.19.1.33.22.41.33.08.12.12.26.12.41,0,.27-.1.49-.32.66-.21.17-.49.26-.83.26-.38,0-.71-.13-1.01-.39l.12-.62.07-.03c.13.13.25.23.37.3.11.07.24.11.38.11.11,0,.21-.03.28-.09.07-.06.11-.14.11-.24,0-.11-.08-.21-.25-.29l-.64-.38.31-1.25h.71l-.26.95Zm2.31-8.6l-.25,1.2-.13.04c-.59-.46-1.23-.68-1.94-.68-.77,0-1.36.26-1.77.78-.41.52-.61,1.3-.61,2.33s.21,1.87.62,2.42c.41.55,1,.83,1.76.83.37,0,.73-.06,1.1-.19.36-.13.7-.3,1.01-.53l.13.08-.1,1.23c-.75.37-1.5.55-2.23.55-1.18,0-2.09-.37-2.73-1.1-.64-.74-.96-1.78-.96-3.14s.33-2.48,1-3.24c.67-.76,1.62-1.14,2.84-1.14.86,0,1.61.19,2.27.58" style="fill:#2f5aa1; stroke-width:0px;"></path><path d="m206.55,96.93l-1.21-3.89h-.09l-1.38,3.89,1.33.03,1.35-.03Zm.87-7.7v.12l-.85,1.01-.13.07c-.16-.03-.51-.11-1.06-.26-.52-.15-.84-.22-.97-.22-.09,0-.17.04-.25.1-.08.07-.19.18-.33.33l-.2.21h-.13l-.41-.42v-.12l.85-1.01.14-.05c.24.04.6.12,1.08.25.52.15.84.22.96.22.09,0,.18-.04.26-.11.09-.07.18-.17.29-.28.1-.11.18-.2.22-.25h.13l.39.42Zm1.43,10.91h-1.39l-.2-.95-.37-1.17-1.79-.04-1.61.04-.39,1.1-.21,1.01h-1.35l3.01-8.43h1.59l2.72,8.43Z" style="fill:#2f5aa1; stroke-width:0px;"></path><path d="m211.33,93.49c-.39.51-.58,1.3-.58,2.37,0,1.16.19,2.02.57,2.55.38.54.97.81,1.77.81s1.4-.26,1.79-.77c.38-.52.58-1.32.58-2.42s-.19-1.98-.57-2.52c-.38-.53-.97-.79-1.77-.79s-1.39.26-1.78.77m4.58-.79c.63.72.95,1.74.95,3.07,0,1.44-.34,2.55-1.01,3.33-.67.78-1.63,1.18-2.88,1.18-1.15,0-2.05-.37-2.67-1.11-.63-.74-.94-1.79-.94-3.15s.34-2.5,1.01-3.26c.67-.76,1.62-1.14,2.86-1.14,1.16,0,2.06.36,2.69,1.08" style="fill:#2f5aa1; stroke-width:0px;"></path><path d="m225.44,98.35c.42-.53.64-1.34.64-2.42s-.2-1.88-.61-2.4c-.41-.51-1.02-.77-1.85-.77-.48,0-1.05.02-1.72.05l-.07,4.68.04,1.56c.32.03.63.05.95.07.31.02.57.03.77.03.81,0,1.42-.27,1.85-.8m1.07-5.66c.65.68.97,1.66.97,2.94,0,1.48-.35,2.62-1.06,3.41-.71.79-1.73,1.19-3.06,1.19-.38,0-.83,0-1.35-.02-.52-.01-1.02-.03-1.47-.06h-.01l.09-2.54-.09-5.9h.01l3.19-.05c1.21,0,2.14.34,2.78,1.02" style="fill:#2f5aa1; stroke-width:0px;"></path><path d="m230.35,93.49c-.39.51-.58,1.3-.58,2.37,0,1.16.19,2.02.57,2.55.38.54.97.81,1.77.81s1.4-.26,1.79-.77c.38-.52.58-1.32.58-2.42s-.19-1.98-.57-2.52c-.38-.53-.97-.79-1.77-.79s-1.39.26-1.78.77m4.58-.79c.63.72.95,1.74.95,3.07,0,1.44-.34,2.55-1.01,3.33-.67.78-1.63,1.18-2.88,1.18-1.15,0-2.05-.37-2.67-1.11-.63-.74-.94-1.79-.94-3.15s.34-2.5,1.01-3.26c.67-.76,1.62-1.14,2.86-1.14,1.16,0,2.06.36,2.69,1.08" style="fill:#2f5aa1; stroke-width:0px;"></path><path d="m243.01,93.03c-.24-.18-.64-.28-1.2-.28h-.89l-.04,2.59,1.35.04c.38-.1.67-.26.85-.49.18-.23.28-.55.28-.95s-.12-.72-.35-.91m.33,5.75c.35-.24.52-.6.52-1.08,0-.75-.49-1.2-1.46-1.33h-1.54s-.01,1.12-.01,1.12l.04,1.62c.34.03.66.04.95.04.65,0,1.15-.12,1.5-.37m1.46-2.33c.28.34.43.78.43,1.33,0,1.61-1.2,2.42-3.61,2.42-.83,0-1.52-.02-2.05-.05h-.01l.09-2.54-.09-5.9h2.63c.82-.01,1.45.16,1.9.52.45.36.68.87.68,1.54,0,.47-.11.88-.33,1.21-.22.34-.53.59-.93.77.59.12,1.02.35,1.31.69" style="fill:#2f5aa1; stroke-width:0px;"></path><path d="m248.17,96.04l1.44.04c.89-.27,1.33-.87,1.33-1.81,0-.49-.13-.86-.4-1.1-.27-.25-.67-.38-1.21-.39l-1.12.04-.04,3.23Zm4.64,3.8v.16c-.43.14-.87.23-1.31.28l-.16-.1c-.73-1.19-1.31-2.2-1.76-3.02h-1.43v.35l.07,2.65h-1.38l.09-2.54-.09-5.9h2.86c.85-.01,1.51.2,1.97.62.46.42.7,1.03.7,1.82,0,.56-.15,1.07-.44,1.52-.29.45-.7.82-1.23,1.1.6.95,1.3,1.97,2.11,3.06" style="fill:#2f5aa1; stroke-width:0px;"></path><path d="m258.35,96.93l-1.21-3.89h-.09l-1.38,3.89,1.33.03,1.35-.03Zm2.3,3.22h-1.39l-.2-.95-.37-1.17-1.79-.04-1.61.04-.39,1.1-.21,1.01h-1.35l3.01-8.43h1.59l2.72,8.43Z" style="fill:#2f5aa1; stroke-width:0px;"></path><path d="m266.49,92.05l-.22,1.23-.21.08c-.28-.2-.57-.36-.87-.47-.3-.11-.58-.17-.85-.17-.43,0-.77.12-1.02.35-.25.24-.38.51-.38.83s.13.56.38.75c.25.2.65.42,1.19.68.47.23.86.43,1.15.62.29.18.55.43.76.73.21.3.31.66.31,1.08,0,.46-.12.87-.37,1.25-.25.38-.6.68-1.05.91-.45.22-.97.33-1.54.33-.39,0-.78-.05-1.19-.14-.41-.1-.8-.24-1.17-.42l.17-1.34.17-.08c.32.31.68.54,1.07.69.39.15.75.23,1.08.23.45,0,.82-.12,1.09-.36.27-.24.41-.53.41-.86s-.13-.6-.4-.81c-.26-.21-.67-.44-1.21-.69-.46-.22-.84-.42-1.13-.6-.29-.18-.54-.42-.74-.72-.21-.3-.31-.66-.31-1.08,0-.45.12-.87.37-1.25.25-.38.59-.67,1.03-.89.44-.21.94-.32,1.5-.32.67,0,1.33.14,2,.42" style="fill:#2f5aa1; stroke-width:0px;"></path><polygon points="269.68 97.5 269.75 100.15 268.37 100.15 268.46 97.62 268.37 91.72 269.76 91.72 269.68 97.5" style="fill:#2f5aa1; stroke-width:0px;"></polygon><polygon points="276.43 99.14 276.33 100.15 271.99 100.15 272.08 97.62 271.99 91.72 273.38 91.72 273.31 97.5 273.33 99.02 276.34 99.02 276.43 99.14" style="fill:#2f5aa1; stroke-width:0px;"></polygon><rect x="141.05" y="11.39" width="15.83" height="55.78" style="fill:#2f5aa1; stroke-width:0px;"></rect><polygon points="167.43 11.39 208.36 11.39 208.36 24.66 183.26 24.66 183.26 32.35 206.63 32.35 206.63 45.61 183.26 45.61 183.26 53.91 209.34 53.91 209.34 67.17 167.43 67.17 167.43 11.39" style="fill:#2f5aa1; stroke-width:0px;"></polygon><path d="m232.94,53.91h9.2c3.32,0,5.58-.83,5.58-4.67,0-3.54-2.26-4.45-5.58-4.45h-9.2v9.12Zm0-20.81h7.39c3.01,0,5.2-.98,5.2-4.15,0-3.39-2.19-4.3-5.2-4.3h-7.39v8.44Zm-15.83,34.07V11.39h23.75c13.34,0,20.5,5.5,20.5,15.53,0,4.97-1.36,8.22-5.35,11.31,6.33,2.64,8.07,8.9,8.07,12.74,0,10.63-7.84,16.21-21.11,16.21h-25.86Z" style="fill:#2f5aa1; stroke-width:0px;"></path><path d="m102.77,0H7.04C3.15,0,0,3.15,0,7.04v95.73c0,3.89,3.15,7.04,7.04,7.04h95.73c3.89,0,7.04-3.15,7.04-7.04V7.04c0-3.89-3.15-7.04-7.04-7.04ZM12.96,37.18c2.3-5.42,5.58-10.29,9.75-14.47,4.18-4.18,9.04-7.45,14.47-9.75,5.62-2.37,11.58-3.58,17.73-3.58s12.1,1.21,17.73,3.58c5.42,2.3,10.29,5.57,14.46,9.75,4.18,4.18,7.46,9.04,9.75,14.47,1.57,3.7,2.63,7.56,3.17,11.51.01.1.02.21.03.31-.01-.1-.02-.21-.03-.31l-7.21,3.75-32.69,17.01-1.53-20.08c5.77-1.73,9.97-7.08,9.97-13.41,0-7.73-6.27-14-14-14s-14,6.27-14,14c0,6.33,4.2,11.68,9.97,13.41l-.9,11.78h0s-31.27-16.61-31.27-16.61l-6.78-3.61c-.02.05-.03.1-.05.15.02-.05.03-.1.05-.15.4-1.27.86-2.52,1.39-3.76Zm-2.91,9.89c.02-.1.04-.2.06-.3-.02.1-.04.2-.06.3h0Zm12.66,40.03c-4.18-4.18-7.45-9.04-9.75-14.46-2.38-5.62-3.58-11.59-3.58-17.73,0-2.65.23-5.26.67-7.83h0s7,4.77,7,4.77l31.67,21.58h0s-1.4,26.38-1.4,26.38c0,0,0,0,0,0-3.48-.58-6.87-1.57-10.14-2.96-5.42-2.29-10.29-5.57-14.47-9.75Zm64.38,0c-4.18,4.18-9.04,7.46-14.46,9.75-3.47,1.47-7.07,2.49-10.76,3.06l-.88-18.25,31.5-21.31,7.93-5.36c0,6.11-1.21,12.05-3.59,17.65-2.29,5.42-5.58,10.29-9.75,14.46Z" style="fill:#a0c256; stroke-width:0px;"></path></g></svg>